<svg width="20" height="20" viewBox="0 0 20 20" fill="none" xmlns="http://www.w3.org/2000/svg">
<path d="M12.5 17.5V13.3333C12.5 13.1123 12.4122 12.9004 12.2559 12.7441C12.0996 12.5878 11.8877 12.5 11.6667 12.5H8.33333C8.11232 12.5 7.90036 12.5878 7.74408 12.7441C7.5878 12.9004 7.5 13.1123 7.5 13.3333V17.5" stroke="white" stroke-width="1.66667" stroke-linecap="round" stroke-linejoin="round"/>
<path d="M14.8118 8.59163C14.6381 8.42532 14.4069 8.33249 14.1664 8.33249C13.9259 8.33249 13.6947 8.42532 13.521 8.59163C13.1335 8.96122 12.6185 9.16742 12.083 9.16742C11.5475 9.16742 11.0326 8.96122 10.6451 8.59163C10.4714 8.42557 10.2404 8.33289 10.0001 8.33289C9.75983 8.33289 9.5288 8.42557 9.35512 8.59163C8.96759 8.96147 8.45248 9.16782 7.91679 9.16782C7.3811 9.16782 6.86599 8.96147 6.47846 8.59163C6.30474 8.42532 6.07353 8.33249 5.83304 8.33249C5.59255 8.33249 5.36134 8.42532 5.18762 8.59163C4.81333 8.9488 4.31952 9.15393 3.80231 9.16708C3.28511 9.18023 2.78151 9.00047 2.38954 8.66277C1.99758 8.32508 1.74529 7.85362 1.68178 7.34016C1.61827 6.8267 1.74808 6.30798 2.04596 5.88496L4.45346 2.39829C4.60621 2.17289 4.81187 1.98834 5.05244 1.86079C5.29301 1.73324 5.56117 1.66658 5.83346 1.66663H14.1668C14.4383 1.66652 14.7057 1.73274 14.9458 1.85953C15.1858 1.98632 15.3913 2.16984 15.5443 2.39413L17.9568 5.88746C18.2547 6.31081 18.3844 6.82993 18.3205 7.34366C18.2566 7.85738 18.0037 8.32891 17.6111 8.66637C17.2185 9.00382 16.7144 9.18302 16.1969 9.16905C15.6794 9.15508 15.1856 8.94894 14.8118 8.59079" stroke="white" stroke-width="1.66667" stroke-linecap="round" stroke-linejoin="round"/>
<path d="M3.3335 9.125V15.8333C3.3335 16.2754 3.50909 16.6993 3.82165 17.0118C4.13421 17.3244 4.55814 17.5 5.00016 17.5H15.0002C15.4422 17.5 15.8661 17.3244 16.1787 17.0118C16.4912 16.6993 16.6668 16.2754 16.6668 15.8333V9.125" stroke="white" stroke-width="1.66667" stroke-linecap="round" stroke-linejoin="round"/>
</svg>
