<?xml version="1.0" encoding="UTF-8"?>
<svg version="1.1" xmlns="http://www.w3.org/2000/svg" width="118" height="118">
<path d="M0 0 C0.495 0.99 0.495 0.99 1 2 C1.5775 1.773125 2.155 1.54625 2.75 1.3125 C5 1 5 1 7.125 2.375 C7.74375 2.91125 8.3625 3.4475 9 4 C9.99 4.495 9.99 4.495 11 5 C14.84046331 7.56030887 17.43969113 10.15953669 20 14 C20.515625 14.639375 21.03125 15.27875 21.5625 15.9375 C23.0262721 18.03769475 23.66354972 19.47662294 24 22 C23.67 22.66 23.34 23.32 23 24 C23.66 24 24.32 24 25 24 C25.04645584 32.09327013 25.08193625 40.18648402 25.10362434 48.27985477 C25.11403649 52.0384246 25.12814842 55.79690281 25.15087891 59.55541992 C25.17269938 63.18642 25.18458793 66.81733226 25.18975449 70.44839287 C25.19343379 71.82979145 25.20061838 73.21118553 25.21146011 74.59254646 C25.31500785 88.33945534 25.31500785 88.33945534 23 94 C22.34 94.66 21.68 95.32 21 96 C20.67 96.66 20.34 97.32 20 98 C18.40931644 100.38602535 16.98664367 102.01335633 15 104 C14.67 104.66 14.34 105.32 14 106 C12.515 106.495 12.515 106.495 11 107 C10.401875 107.495 9.80375 107.99 9.1875 108.5 C4.87750951 111.45542205 -0.47726178 111.13506093 -5.55615234 111.20532227 C-7.47746475 111.2352401 -7.47746475 111.2352401 -9.43759155 111.26576233 C-10.82037234 111.28274146 -12.20315435 111.29962045 -13.5859375 111.31640625 C-15.01226368 111.33700055 -16.43858409 111.35799764 -17.86489868 111.37937927 C-21.6032034 111.43434444 -25.34156085 111.48386543 -29.07995605 111.53222656 C-32.90100753 111.58262924 -36.72198326 111.63821695 -40.54296875 111.69335938 C-48.02858153 111.80062794 -55.51425767 111.90214122 -63 112 C-63 111.34 -63 110.68 -63 110 C-63.5775 110.226875 -64.155 110.45375 -64.75 110.6875 C-67 111 -67 111 -69.125 109.625 C-69.74375 109.08875 -70.3625 108.5525 -71 108 C-71.66 107.67 -72.32 107.34 -73 107 C-75.38602535 105.40931644 -77.01335633 103.98664367 -79 102 C-79.66 101.67 -80.32 101.34 -81 101 C-81.33 100.01 -81.66 99.02 -82 98 C-82.7425 97.0409375 -82.7425 97.0409375 -83.5 96.0625 C-85.03165294 93.95647721 -85.65821867 92.56335995 -86 90 C-85.505 89.01 -85.505 89.01 -85 88 C-85.66 88 -86.32 88 -87 88 C-87.04645584 79.90672987 -87.08193625 71.81351598 -87.10362434 63.72014523 C-87.11403649 59.9615754 -87.12814842 56.20309719 -87.15087891 52.44458008 C-87.17269938 48.81358 -87.18458793 45.18266774 -87.18975449 41.55160713 C-87.19343379 40.17020855 -87.20061838 38.78881447 -87.21146011 37.40745354 C-87.31500785 23.66054466 -87.31500785 23.66054466 -85 18 C-84.34 17.34 -83.68 16.68 -83 16 C-82.67 15.34 -82.34 14.68 -82 14 C-80.40931644 11.61397465 -78.98664367 9.98664367 -77 8 C-76.67 7.34 -76.34 6.68 -76 6 C-75.01 5.67 -74.02 5.34 -73 5 C-72.401875 4.505 -71.80375 4.01 -71.1875 3.5 C-66.90165453 0.56113454 -61.58778788 0.8656918 -56.53564453 0.79467773 C-55.27479034 0.77473251 -54.01393616 0.75478729 -52.71487427 0.73423767 C-51.35418823 0.71725866 -49.99350094 0.70037967 -48.6328125 0.68359375 C-47.22890649 0.66299884 -45.82500632 0.64200174 -44.42111206 0.62062073 C-40.7419918 0.56566179 -37.06281803 0.5161381 -33.38360596 0.46777344 C-29.62287687 0.41736615 -25.86222464 0.36178087 -22.1015625 0.30664062 C-14.73444025 0.1993797 -7.3672537 0.09786479 0 0 Z M-68.3125 13.375 C-71 16 -71 16 -73.75 17.5 C-76.22886298 18.80036874 -76.22886298 18.80036874 -76.6875 21.4375 C-76.790625 22.283125 -76.89375 23.12875 -77 24 C-77.33241699 24.60553711 -77.66483398 25.21107422 -78.00732422 25.83496094 C-79.20888372 28.45557817 -79.22873933 30.32841748 -79.1953125 33.203125 C-79.18886719 34.1828125 -79.18242188 35.1625 -79.17578125 36.171875 C-79.15902344 37.18765625 -79.14226562 38.2034375 -79.125 39.25 C-79.11597656 40.28125 -79.10695313 41.3125 -79.09765625 42.375 C-79.07412011 44.91690287 -79.04124023 47.4583328 -79 50 C-78.34 50.33 -77.68 50.66 -77 51 C-77 51.33 -77 51.66 -77 52 C-63.47 52 -49.94 52 -36 52 C-34.66750581 48.00251743 -34.85733671 44.15946284 -34.8671875 39.9921875 C-34.86623077 39.11096222 -34.86527405 38.22973694 -34.86428833 37.32180786 C-34.86360814 35.46079436 -34.8654512 33.59977847 -34.86962891 31.73876953 C-34.87499216 28.87917811 -34.86967194 26.01974286 -34.86328125 23.16015625 C-34.86394181 21.35416632 -34.86522251 19.54817648 -34.8671875 17.7421875 C-34.86516327 16.88180878 -34.86313904 16.02143005 -34.86105347 15.13497925 C-34.49191108 11.25580394 -34.49191108 11.25580394 -36 8 C-39.74309759 7.74656997 -43.49934483 7.81476763 -47.25 7.8125 C-48.82587891 7.79413086 -48.82587891 7.79413086 -50.43359375 7.77539062 C-51.45066406 7.77345703 -52.46773437 7.77152344 -53.515625 7.76953125 C-54.91216309 7.76336792 -54.91216309 7.76336792 -56.33691406 7.75708008 C-61.11347618 8.19278592 -64.98982641 9.96252442 -68.3125 13.375 Z M-27 8 C-27 10.64 -27 13.28 -27 16 C-24.69 16 -22.38 16 -20 16 C-20 13.36 -20 10.72 -20 8 C-22.31 8 -24.62 8 -27 8 Z M-13 8 C-13 10.64 -13 13.28 -13 16 C-11.37509046 16.02698189 -9.75005367 16.04638757 -8.125 16.0625 C-7.22007813 16.07410156 -6.31515625 16.08570313 -5.3828125 16.09765625 C-2.9831415 16.16249257 -2.9831415 16.16249257 -1 15 C-0.67 15.66 -0.34 16.32 0 17 C2.8684413 19.10232344 2.8684413 19.10232344 6 20 C6.625 21.9375 6.625 21.9375 7 24 C7.495 24.99 7.495 24.99 8 26 C8.66 26 9.32 26 10 26 C9.67 26.66 9.34 27.32 9 28 C8.76759495 30.71426141 8.58091198 33.40633767 8.4375 36.125 C8.293125 38.72375 8.14875 41.3225 8 44 C-0.91 44 -9.82 44 -19 44 C-19.33 37.4 -19.66 30.8 -20 24 C-22.31 24 -24.62 24 -27 24 C-27 50.4 -27 76.8 -27 104 C-24.69 104 -22.38 104 -20 104 C-20 86.84 -20 69.68 -20 52 C-8.45 52 3.1 52 15 52 C15.495 51.01 15.495 51.01 16 50 C16.33 50 16.66 50 17 50 C17.05855176 46.47923768 17.0937806 42.9586024 17.125 39.4375 C17.14175781 38.44685547 17.15851563 37.45621094 17.17578125 36.43554688 C17.21258825 30.8960939 17.01342726 26.19141523 15 21 C13.00334686 19.31461399 13.00334686 19.31461399 11 18 C10.64830932 16.67139075 10.31229724 15.33841672 10 14 C9.01 13.67 8.02 13.34 7 13 C6.566875 12.505 6.13375 12.01 5.6875 11.5 C3.32508487 9.40007544 1.07467378 9.40104441 -2 9 C-2.33 8.67 -2.66 8.34 -3 8 C-4.68608966 7.92794489 -6.37500659 7.91613932 -8.0625 7.9375 C-8.98160156 7.94652344 -9.90070313 7.95554687 -10.84765625 7.96484375 C-11.55792969 7.97644531 -12.26820312 7.98804688 -13 8 Z M-77 59 C-77.33 59.66 -77.66 60.32 -78 61 C-78.33 61 -78.66 61 -79 61 C-79.05850924 64.68743234 -79.09376673 68.3747437 -79.125 72.0625 C-79.14175781 73.10083984 -79.15851563 74.13917969 -79.17578125 75.20898438 C-79.21165893 80.85971886 -79.07451019 85.70891478 -77 91 C-75.00334686 92.68538601 -75.00334686 92.68538601 -73 94 C-72.64830932 95.32860925 -72.31229724 96.66158328 -72 98 C-71.01 98.33 -70.02 98.66 -69 99 C-68.566875 99.495 -68.13375 99.99 -67.6875 100.5 C-65.32508487 102.59992456 -63.07467378 102.59895559 -60 103 C-59.505 103.495 -59.505 103.495 -59 104 C-57.29227642 104.08713831 -55.58101351 104.10700007 -53.87109375 104.09765625 C-52.83662109 104.09443359 -51.80214844 104.09121094 -50.73632812 104.08789062 C-49.64771484 104.07951172 -48.55910156 104.07113281 -47.4375 104.0625 C-46.34501953 104.05798828 -45.25253906 104.05347656 -44.12695312 104.04882812 C-41.41791505 104.03699826 -38.70898401 104.02051543 -36 104 C-35.0938368 101.2815104 -34.87369701 99.70429744 -34.87060547 96.91162109 C-34.86587723 95.68552628 -34.86587723 95.68552628 -34.86105347 94.43466187 C-34.8630777 93.55645782 -34.86510193 92.67825378 -34.8671875 91.7734375 C-34.86623077 90.87001617 -34.86527405 89.96659485 -34.86428833 89.03579712 C-34.86360808 87.12770518 -34.86545155 85.21961092 -34.86962891 83.31152344 C-34.87499176 80.37950495 -34.86967229 77.44763879 -34.86328125 74.515625 C-34.86394181 72.66406216 -34.86522253 70.81249942 -34.8671875 68.9609375 C-34.86516327 68.078685 -34.86313904 67.1964325 -34.86105347 66.28744507 C-34.47864394 62.3275799 -34.47864394 62.3275799 -36 59 C-39.02977804 58.91128727 -42.03667022 58.8848065 -45.06640625 58.90234375 C-45.97502914 58.9037587 -46.88365204 58.90517365 -47.81980896 58.90663147 C-50.73407221 58.91224807 -53.64825981 58.92480335 -56.5625 58.9375 C-58.53320202 58.94251286 -60.50390524 58.94707614 -62.47460938 58.95117188 C-67.31643559 58.96222289 -72.15820495 58.97949862 -77 59 Z M9 59 C9.01047363 59.77190674 9.02094727 60.54381348 9.03173828 61.33911133 C9.07326454 64.83020788 9.09931557 68.32125249 9.125 71.8125 C9.14175781 73.02744141 9.15851563 74.24238281 9.17578125 75.49414062 C9.18222656 76.65751953 9.18867187 77.82089844 9.1953125 79.01953125 C9.20578613 80.09307861 9.21625977 81.16662598 9.22705078 82.27270508 C9 85 9 85 7 88 C6.71125 88.86625 6.4225 89.7325 6.125 90.625 C5.75375 91.40875 5.3825 92.1925 5 93 C2.9375 93.6875 2.9375 93.6875 1 94 C0.67 94.66 0.34 95.32 0 96 C-4.29 96 -8.58 96 -13 96 C-13 98.64 -13 101.28 -13 104 C-5.25483498 104.38552585 -5.25483498 104.38552585 2 102 C2.99 101.505 2.99 101.505 4 101 C6.84467084 98.81179166 9.51960205 96.59314331 12 94 C12.53625 93.566875 13.0725 93.13375 13.625 92.6875 C15.56520641 90.30633759 15.60941942 87.9944511 16 85 C16.33 84.67 16.66 84.34 17 84 C17.08737645 82.14630389 17.10698153 80.28932459 17.09765625 78.43359375 C17.09282227 76.7465332 17.09282227 76.7465332 17.08789062 75.02539062 C17.07951172 73.84138672 17.07113281 72.65738281 17.0625 71.4375 C17.05798828 70.24962891 17.05347656 69.06175781 17.04882812 67.83789062 C17.03699675 64.89187774 17.02051287 61.94596319 17 59 C14.36 59 11.72 59 9 59 Z " fill="#D12B24" transform="translate(90,3)"/>
<path d="M0 0 C1.21042969 -0.00128906 2.42085937 -0.00257812 3.66796875 -0.00390625 C4.94285156 -0.00003906 6.21773437 0.00382812 7.53125 0.0078125 C9.44357422 0.00201172 9.44357422 0.00201172 11.39453125 -0.00390625 C13.21017578 -0.00197266 13.21017578 -0.00197266 15.0625 0 C16.18205078 0.00112793 17.30160156 0.00225586 18.45507812 0.00341797 C21.03125 0.1328125 21.03125 0.1328125 22.03125 1.1328125 C22.11900605 3.27840077 22.13820219 5.42685671 22.12890625 7.57421875 C22.12568359 8.87939453 22.12246094 10.18457031 22.11914062 11.52929688 C22.11078401 12.9179694 22.10231905 14.30664127 22.09375 15.6953125 C22.08873666 17.08788906 22.08417347 18.48046731 22.08007812 19.87304688 C22.06824434 23.2930112 22.0517588 26.71289094 22.03125 30.1328125 C18.92810213 30.35877204 15.82384193 30.56052146 12.71875 30.7578125 C11.39713867 30.85449219 11.39713867 30.85449219 10.04882812 30.953125 C9.20126953 31.0046875 8.35371094 31.05625 7.48046875 31.109375 C6.31004028 31.18792725 6.31004028 31.18792725 5.1159668 31.26806641 C3.03125 31.1328125 3.03125 31.1328125 0.03125 29.1328125 C-0.9896875 28.6996875 -0.9896875 28.6996875 -2.03125 28.2578125 C-4.43206611 26.86379025 -4.89991452 25.65221042 -5.96875 23.1328125 C-6.62875 22.1428125 -7.28875 21.1528125 -7.96875 20.1328125 C-8.11987305 18.06396484 -8.11987305 18.06396484 -7.98046875 15.71875 C-7.93341797 14.87570313 -7.88636719 14.03265625 -7.83789062 13.1640625 C-7.77794922 12.2875 -7.71800781 11.4109375 -7.65625 10.5078125 C-7.60791016 9.62351562 -7.55957031 8.73921875 -7.50976562 7.828125 C-7.03594517 0.0070886 -7.03594517 0.0070886 0 0 Z " fill="#D62B24" transform="translate(25.96875,68.8671875)"/>
<path d="M0 0 C0.82741699 0.05236816 1.65483398 0.10473633 2.50732422 0.15869141 C3.85117187 0.23603516 3.85117187 0.23603516 5.22216797 0.31494141 C6.15931641 0.37939453 7.09646484 0.44384766 8.06201172 0.51025391 C9.00689453 0.56697266 9.95177734 0.62369141 10.92529297 0.68212891 C13.26327653 0.82382488 15.60022116 0.97525174 17.93701172 1.13525391 C17.96167053 5.1045638 17.97985195 9.07384425 17.99194336 13.04321289 C17.99698229 14.39445777 18.00381349 15.74569717 18.01245117 17.09692383 C18.02453591 19.03545825 18.02971 20.97403191 18.03466797 22.91259766 C18.04252319 24.66431274 18.04252319 24.66431274 18.05053711 26.45141602 C17.93701172 29.13525391 17.93701172 29.13525391 16.93701172 30.13525391 C14.94944144 30.23508448 12.95833652 30.26606144 10.96826172 30.26806641 C9.75783203 30.26935547 8.54740234 30.27064453 7.30029297 30.27197266 C6.02541016 30.26810547 4.75052734 30.26423828 3.43701172 30.26025391 C2.16212891 30.26412109 0.88724609 30.26798828 -0.42626953 30.27197266 C-2.24191406 30.27003906 -2.24191406 30.27003906 -4.09423828 30.26806641 C-5.21378906 30.26693848 -6.33333984 30.26581055 -7.48681641 30.26464844 C-10.06298828 30.13525391 -10.06298828 30.13525391 -11.06298828 29.13525391 C-11.35478455 26.17013227 -11.57874359 23.2325821 -11.75048828 20.26025391 C-11.81042969 19.43138672 -11.87037109 18.60251953 -11.93212891 17.74853516 C-11.97917969 16.95060547 -12.02623047 16.15267578 -12.07470703 15.33056641 C-12.12071045 14.59854004 -12.16671387 13.86651367 -12.21411133 13.11230469 C-12.06298828 11.13525391 -12.06298828 11.13525391 -10.06298828 8.13525391 C-9.77423828 7.45462891 -9.48548828 6.77400391 -9.18798828 6.07275391 C-7.80222392 3.68615972 -6.54940922 3.22306307 -4.06298828 2.13525391 C-2.06298828 0.13525391 -2.06298828 0.13525391 0 0 Z " fill="#DB2D25" transform="translate(30.06298828125,17.86474609375)"/>
<path d="M0 0 C0.66 0 1.32 0 2 0 C2.02465881 3.96930989 2.04284023 7.93859034 2.05493164 11.90795898 C2.05997057 13.25920386 2.06680177 14.61044326 2.07543945 15.96166992 C2.08752419 17.90020434 2.09269828 19.838778 2.09765625 21.77734375 C2.10551147 23.52905884 2.10551147 23.52905884 2.11352539 25.31616211 C2 28 2 28 1 29 C-0.99964982 29.08758003 -3.0023611 29.10696576 -5.00390625 29.09765625 C-6.21884766 29.09443359 -7.43378906 29.09121094 -8.68554688 29.08789062 C-9.96494141 29.07951172 -11.24433594 29.07113281 -12.5625 29.0625 C-13.84576172 29.05798828 -15.12902344 29.05347656 -16.45117188 29.04882812 C-19.63416022 29.03699545 -22.81705762 29.02051068 -26 29 C-26 28.34 -26 27.68 -26 27 C-17.42 27 -8.84 27 0 27 C0 18.09 0 9.18 0 0 Z " fill="#A1211B" transform="translate(46,19)"/>
<path d="M0 0 C0.66 0 1.32 0 2 0 C1.43573848 3.79594117 -0.18251862 5.58710633 -2.875 8.25 C-3.57367188 8.95640625 -4.27234375 9.6628125 -4.9921875 10.390625 C-7 12 -7 12 -10 12 C-8.41131482 8.82262963 -6.48005813 6.48005813 -4 4 C-3.67 3.34 -3.34 2.68 -3 2 C-2.01 1.67 -1.02 1.34 0 1 C0 0.67 0 0.34 0 0 Z " fill="#9C211C" transform="translate(17,7)"/>
<path d="M0 0 C5.75 1.75 5.75 1.75 8 4 C8 4.99 8 5.98 8 7 C7.01 6.67 6.02 6.34 5 6 C5 5.34 5 4.68 5 4 C2.03 3.505 2.03 3.505 -1 3 C-0.67 2.01 -0.34 1.02 0 0 Z " fill="#921F1A" transform="translate(91,11)"/>
<path d="M0 0 C0.99 0.33 1.98 0.66 3 1 C2.34 2.32 1.68 3.64 1 5 C0.01 4.67 -0.98 4.34 -2 4 C-1.34 2.68 -0.68 1.36 0 0 Z " fill="#7B1B17" transform="translate(23,21)"/>
<path d="" fill="#000000" transform="translate(0,0)"/>
<path d="" fill="#000000" transform="translate(0,0)"/>
<path d="" fill="#000000" transform="translate(0,0)"/>
<path d="" fill="#000000" transform="translate(0,0)"/>
<path d="" fill="#000000" transform="translate(0,0)"/>
<path d="" fill="#000000" transform="translate(0,0)"/>
<path d="" fill="#000000" transform="translate(0,0)"/>
<path d="" fill="#000000" transform="translate(0,0)"/>
<path d="" fill="#000000" transform="translate(0,0)"/>
<path d="" fill="#000000" transform="translate(0,0)"/>
<path d="" fill="#000000" transform="translate(0,0)"/>
<path d="" fill="#000000" transform="translate(0,0)"/>
<path d="" fill="#000000" transform="translate(0,0)"/>
<path d="" fill="#000000" transform="translate(0,0)"/>
<path d="" fill="#000000" transform="translate(0,0)"/>
<path d="" fill="#000000" transform="translate(0,0)"/>
<path d="" fill="#000000" transform="translate(0,0)"/>
<path d="" fill="#000000" transform="translate(0,0)"/>
<path d="" fill="#000000" transform="translate(0,0)"/>
<path d="" fill="#000000" transform="translate(0,0)"/>
<path d="" fill="#000000" transform="translate(0,0)"/>
<path d="" fill="#000000" transform="translate(0,0)"/>
<path d="" fill="#000000" transform="translate(0,0)"/>
<path d="" fill="#000000" transform="translate(0,0)"/>
<path d="" fill="#000000" transform="translate(0,0)"/>
<path d="" fill="#000000" transform="translate(0,0)"/>
<path d="" fill="#000000" transform="translate(0,0)"/>
<path d="" fill="#000000" transform="translate(0,0)"/>
<path d="" fill="#000000" transform="translate(0,0)"/>
<path d="" fill="#000000" transform="translate(0,0)"/>
<path d="" fill="#000000" transform="translate(0,0)"/>
<path d="" fill="#000000" transform="translate(0,0)"/>
<path d="" fill="#000000" transform="translate(0,0)"/>
<path d="" fill="#000000" transform="translate(0,0)"/>
<path d="" fill="#000000" transform="translate(0,0)"/>
<path d="" fill="#000000" transform="translate(0,0)"/>
<path d="" fill="#000000" transform="translate(0,0)"/>
<path d="" fill="#000000" transform="translate(0,0)"/>
<path d="" fill="#000000" transform="translate(0,0)"/>
<path d="" fill="#000000" transform="translate(0,0)"/>
<path d="" fill="#000000" transform="translate(0,0)"/>
<path d="" fill="#000000" transform="translate(0,0)"/>
<path d="" fill="#000000" transform="translate(0,0)"/>
<path d="" fill="#000000" transform="translate(0,0)"/>
<path d="" fill="#000000" transform="translate(0,0)"/>
<path d="" fill="#000000" transform="translate(0,0)"/>
<path d="" fill="#000000" transform="translate(0,0)"/>
<path d="" fill="#000000" transform="translate(0,0)"/>
<path d="" fill="#000000" transform="translate(0,0)"/>
<path d="" fill="#000000" transform="translate(0,0)"/>
<path d="" fill="#000000" transform="translate(0,0)"/>
<path d="" fill="#000000" transform="translate(0,0)"/>
<path d="" fill="#000000" transform="translate(0,0)"/>
<path d="" fill="#000000" transform="translate(0,0)"/>
<path d="" fill="#000000" transform="translate(0,0)"/>
<path d="" fill="#000000" transform="translate(0,0)"/>
</svg>
