<svg width="142" height="32" viewBox="0 0 142 32" fill="none" xmlns="http://www.w3.org/2000/svg">
<path d="M0 8C0 3.58172 3.58172 0 8 0H24C28.4183 0 32 3.58172 32 8V24C32 28.4183 28.4183 32 24 32H8C3.58172 32 0 28.4183 0 24V8Z" fill="#FEFEFE"/>
<path d="M18.2393 22.6667L15.5833 18.1067H13.8233V22.6667H12.3673V11.5147H15.9673C16.8099 11.5147 17.5193 11.6587 18.0953 11.9467C18.6819 12.2347 19.1193 12.6241 19.4073 13.1147C19.6953 13.6054 19.8393 14.1654 19.8393 14.7947C19.8393 15.5627 19.6153 16.2401 19.1673 16.8267C18.7299 17.4134 18.0686 17.8027 17.1833 17.9947L19.9833 22.6667H18.2393ZM13.8233 16.9387H15.9673C16.7566 16.9387 17.3486 16.7467 17.7433 16.3627C18.1379 15.9681 18.3353 15.4454 18.3353 14.7947C18.3353 14.1334 18.1379 13.6214 17.7433 13.2587C17.3593 12.8961 16.7673 12.7147 15.9673 12.7147H13.8233V16.9387Z" fill="#24B99E"/>
<path d="M47.722 23.1667L44.95 18.2707H43.762V23.1667H41.242V10.6027H45.958C46.93 10.6027 47.758 10.7767 48.442 11.1247C49.126 11.4607 49.636 11.9227 49.972 12.5107C50.32 13.0867 50.494 13.7347 50.494 14.4547C50.494 15.2827 50.254 16.0327 49.774 16.7047C49.294 17.3647 48.58 17.8207 47.632 18.0727L50.638 23.1667H47.722ZM43.762 16.3807H45.868C46.552 16.3807 47.062 16.2187 47.398 15.8947C47.734 15.5587 47.902 15.0967 47.902 14.5087C47.902 13.9327 47.734 13.4887 47.398 13.1767C47.062 12.8527 46.552 12.6907 45.868 12.6907H43.762V16.3807ZM62.0433 17.9647C62.0433 18.3247 62.0193 18.6487 61.9713 18.9367H54.6813C54.7413 19.6567 54.9933 20.2207 55.4373 20.6287C55.8813 21.0367 56.4273 21.2407 57.0753 21.2407C58.0113 21.2407 58.6773 20.8387 59.0733 20.0347H61.7913C61.5033 20.9947 60.9513 21.7867 60.1353 22.4107C59.3193 23.0227 58.3173 23.3287 57.1293 23.3287C56.1693 23.3287 55.3053 23.1187 54.5373 22.6987C53.7813 22.2667 53.1873 21.6607 52.7553 20.8807C52.3353 20.1007 52.1252 19.2007 52.1252 18.1807C52.1252 17.1487 52.3353 16.2427 52.7553 15.4627C53.1753 14.6827 53.7633 14.0827 54.5193 13.6627C55.2753 13.2427 56.1453 13.0327 57.1293 13.0327C58.0773 13.0327 58.9233 13.2367 59.6673 13.6447C60.4233 14.0527 61.0053 14.6347 61.4133 15.3907C61.8333 16.1347 62.0433 16.9927 62.0433 17.9647ZM59.4333 17.2447C59.4213 16.5967 59.1873 16.0807 58.7313 15.6967C58.2753 15.3007 57.7173 15.1027 57.0573 15.1027C56.4333 15.1027 55.9053 15.2947 55.4733 15.6787C55.0533 16.0507 54.7953 16.5727 54.6993 17.2447H59.4333ZM67.6986 23.3287C66.8826 23.3287 66.1506 23.1847 65.5026 22.8967C64.8546 22.5967 64.3386 22.1947 63.9546 21.6907C63.5826 21.1867 63.3786 20.6287 63.3426 20.0167H65.8806C65.9286 20.4007 66.1146 20.7187 66.4386 20.9707C66.7746 21.2227 67.1886 21.3487 67.6806 21.3487C68.1606 21.3487 68.5326 21.2527 68.7966 21.0607C69.0726 20.8687 69.2106 20.6227 69.2106 20.3227C69.2106 19.9987 69.0426 19.7587 68.7066 19.6027C68.3826 19.4347 67.8606 19.2547 67.1406 19.0627C66.3966 18.8827 65.7846 18.6967 65.3046 18.5047C64.8366 18.3127 64.4286 18.0187 64.0806 17.6227C63.7446 17.2267 63.5766 16.6927 63.5766 16.0207C63.5766 15.4687 63.7326 14.9647 64.0446 14.5087C64.3686 14.0527 64.8246 13.6927 65.4126 13.4287C66.0126 13.1647 66.7146 13.0327 67.5186 13.0327C68.7066 13.0327 69.6546 13.3327 70.3626 13.9327C71.0706 14.5207 71.4606 15.3187 71.5326 16.3267H69.1206C69.0846 15.9307 68.9166 15.6187 68.6166 15.3907C68.3286 15.1507 67.9386 15.0307 67.4466 15.0307C66.9906 15.0307 66.6366 15.1147 66.3846 15.2827C66.1446 15.4507 66.0246 15.6847 66.0246 15.9847C66.0246 16.3207 66.1926 16.5787 66.5286 16.7587C66.8646 16.9267 67.3866 17.1007 68.0946 17.2807C68.8146 17.4607 69.4086 17.6467 69.8766 17.8387C70.3446 18.0307 70.7466 18.3307 71.0826 18.7387C71.4306 19.1347 71.6106 19.6627 71.6226 20.3227C71.6226 20.8987 71.4606 21.4147 71.1366 21.8707C70.8246 22.3267 70.3686 22.6867 69.7686 22.9507C69.1806 23.2027 68.4906 23.3287 67.6986 23.3287ZM76.6252 15.2647V20.0887C76.6252 20.4247 76.7032 20.6707 76.8592 20.8267C77.0272 20.9707 77.3032 21.0427 77.6872 21.0427H78.8572V23.1667H77.2732C75.1492 23.1667 74.0872 22.1347 74.0872 20.0707V15.2647H72.8992V13.1947H74.0872V10.7287H76.6252V13.1947H78.8572V15.2647H76.6252ZM80.0217 18.1447C80.0217 17.1367 80.2197 16.2427 80.6157 15.4627C81.0237 14.6827 81.5697 14.0827 82.2537 13.6627C82.9497 13.2427 83.7237 13.0327 84.5757 13.0327C85.3197 13.0327 85.9677 13.1827 86.5197 13.4827C87.0837 13.7827 87.5337 14.1607 87.8697 14.6167V13.1947H90.4077V23.1667H87.8697V21.7087C87.5457 22.1767 87.0957 22.5667 86.5197 22.8787C85.9557 23.1787 85.3017 23.3287 84.5577 23.3287C83.7177 23.3287 82.9497 23.1127 82.2537 22.6807C81.5697 22.2487 81.0237 21.6427 80.6157 20.8627C80.2197 20.0707 80.0217 19.1647 80.0217 18.1447ZM87.8697 18.1807C87.8697 17.5687 87.7497 17.0467 87.5097 16.6147C87.2697 16.1707 86.9457 15.8347 86.5377 15.6067C86.1297 15.3667 85.6917 15.2467 85.2237 15.2467C84.7557 15.2467 84.3237 15.3607 83.9277 15.5887C83.5317 15.8167 83.2077 16.1527 82.9557 16.5967C82.7157 17.0287 82.5957 17.5447 82.5957 18.1447C82.5957 18.7447 82.7157 19.2727 82.9557 19.7287C83.2077 20.1727 83.5317 20.5147 83.9277 20.7547C84.3357 20.9947 84.7677 21.1147 85.2237 21.1147C85.6917 21.1147 86.1297 21.0007 86.5377 20.7727C86.9457 20.5327 87.2697 20.1967 87.5097 19.7647C87.7497 19.3207 87.8697 18.7927 87.8697 18.1807ZM102.283 13.1947V23.1667H99.745V21.9067C99.421 22.3387 98.995 22.6807 98.467 22.9327C97.951 23.1727 97.387 23.2927 96.775 23.2927C95.995 23.2927 95.305 23.1307 94.705 22.8067C94.105 22.4707 93.631 21.9847 93.283 21.3487C92.947 20.7007 92.779 19.9327 92.779 19.0447V13.1947H95.299V18.6847C95.299 19.4767 95.497 20.0887 95.893 20.5207C96.289 20.9407 96.829 21.1507 97.513 21.1507C98.209 21.1507 98.755 20.9407 99.151 20.5207C99.547 20.0887 99.745 19.4767 99.745 18.6847V13.1947H102.283ZM107.289 14.7427C107.613 14.2147 108.033 13.8007 108.549 13.5007C109.077 13.2007 109.677 13.0507 110.349 13.0507V15.6967H109.683C108.891 15.6967 108.291 15.8827 107.883 16.2547C107.487 16.6267 107.289 17.2747 107.289 18.1987V23.1667H104.769V13.1947H107.289V14.7427ZM111.399 18.1447C111.399 17.1367 111.597 16.2427 111.993 15.4627C112.401 14.6827 112.947 14.0827 113.631 13.6627C114.327 13.2427 115.101 13.0327 115.953 13.0327C116.697 13.0327 117.345 13.1827 117.897 13.4827C118.461 13.7827 118.911 14.1607 119.247 14.6167V13.1947H121.785V23.1667H119.247V21.7087C118.923 22.1767 118.473 22.5667 117.897 22.8787C117.333 23.1787 116.679 23.3287 115.935 23.3287C115.095 23.3287 114.327 23.1127 113.631 22.6807C112.947 22.2487 112.401 21.6427 111.993 20.8627C111.597 20.0707 111.399 19.1647 111.399 18.1447ZM119.247 18.1807C119.247 17.5687 119.127 17.0467 118.887 16.6147C118.647 16.1707 118.323 15.8347 117.915 15.6067C117.507 15.3667 117.069 15.2467 116.601 15.2467C116.133 15.2467 115.701 15.3607 115.305 15.5887C114.909 15.8167 114.585 16.1527 114.333 16.5967C114.093 17.0287 113.973 17.5447 113.973 18.1447C113.973 18.7447 114.093 19.2727 114.333 19.7287C114.585 20.1727 114.909 20.5147 115.305 20.7547C115.713 20.9947 116.145 21.1147 116.601 21.1147C117.069 21.1147 117.507 21.0007 117.915 20.7727C118.323 20.5327 118.647 20.1967 118.887 19.7647C119.127 19.3207 119.247 18.7927 119.247 18.1807ZM129.772 13.0507C130.96 13.0507 131.92 13.4287 132.652 14.1847C133.384 14.9287 133.75 15.9727 133.75 17.3167V23.1667H131.23V17.6587C131.23 16.8667 131.032 16.2607 130.636 15.8407C130.24 15.4087 129.7 15.1927 129.016 15.1927C128.32 15.1927 127.768 15.4087 127.36 15.8407C126.964 16.2607 126.766 16.8667 126.766 17.6587V23.1667H124.246V13.1947H126.766V14.4367C127.102 14.0047 127.528 13.6687 128.044 13.4287C128.572 13.1767 129.148 13.0507 129.772 13.0507ZM139.08 15.2647V20.0887C139.08 20.4247 139.158 20.6707 139.314 20.8267C139.482 20.9707 139.758 21.0427 140.142 21.0427H141.312V23.1667H139.728C137.604 23.1667 136.542 22.1347 136.542 20.0707V15.2647H135.354V13.1947H136.542V10.7287H139.08V13.1947H141.312V15.2647H139.08Z" fill="#FEFEFE"/>
</svg>
