<svg width="20" height="20" viewBox="0 0 20 20" fill="none" xmlns="http://www.w3.org/2000/svg">
<path d="M17.7343 2.72878L10.3377 0.0597534C10.2273 0.0199402 10.1136 0 9.99787 0C9.88166 0 9.76631 0.0201416 9.6554 0.0603577L2.28525 2.72939C1.88692 2.87387 1.60742 3.25233 1.60742 3.67611V9.99997C1.60742 11.4118 2.06249 12.8239 2.93093 14.1968C3.59661 15.2491 4.52312 16.281 5.67032 17.2641C7.58847 18.9078 9.49171 19.8559 9.57168 19.8955C9.7124 19.9651 9.86722 20 10.0202 20C10.171 20 10.3227 19.9662 10.4618 19.8985C10.5418 19.8595 12.4441 18.9262 14.3641 17.289C15.5124 16.3099 16.4251 15.2779 17.0912 14.222C17.9593 12.8461 18.392 11.4257 18.392 9.99997V3.67611C18.3921 3.25166 18.1336 2.87273 17.7343 2.72878ZM3.21875 9.99527V4.42907C3.21875 4.21718 3.3486 4.02792 3.5478 3.95568L9.81264 1.67652C9.8685 1.65631 9.93262 1.64141 9.99975 1.64141V10H16.8285C16.8289 10 16.8294 10.0091 16.8294 10.0149C16.828 11.8363 15.9106 13.6414 14.1031 15.3991C12.6915 16.7717 11.0877 17.7513 10.2628 18.2134C10.1863 18.2563 10.067 18.2766 9.99982 18.2766C9.99982 18.1199 9.99982 10.0868 9.99982 9.99742L3.21875 9.99527Z" fill="black"/>
</svg>
