<svg width="20" height="20" viewBox="0 0 20 20" fill="none" xmlns="http://www.w3.org/2000/svg">
<path d="M18.0137 2.37824L10.1687 0.0247266C10.059 -0.00824219 9.94184 -0.00824219 9.83199 0.0247266L1.98691 2.37824C1.73906 2.45258 1.56934 2.6807 1.56934 2.93945V11.569C1.56934 12.6914 2.02371 13.8404 2.91984 14.984C3.6043 15.8575 4.55117 16.7345 5.73422 17.5909C7.7216 19.0295 9.67855 19.912 9.7609 19.9488C9.83707 19.9829 9.91867 20 10.0003 20C10.0819 20 10.1636 19.983 10.2397 19.9488C10.3221 19.912 12.279 19.0295 14.2664 17.5909C15.4494 16.7345 16.3962 15.8575 17.0807 14.984C17.9768 13.8404 18.4312 12.6914 18.4312 11.569V2.93945C18.4312 2.6807 18.2616 2.45258 18.0137 2.37824ZM17.2594 11.569C17.2594 13.5554 15.2663 15.418 13.5943 16.6307C12.0953 17.718 10.5751 18.4895 10.0004 18.7666C9.42559 18.4895 7.90535 17.718 6.40637 16.6307C4.73434 15.418 2.74121 13.5554 2.74121 11.569V3.37539L10.0003 1.19766L17.2594 3.37539V11.569Z" fill="black"/>
</svg>
